<?xml version="1.0" encoding="iso-8859-1"?>
<!-- Generator: Adobe Illustrator 19.0.0, SVG Export Plug-In . SVG Version: 6.00 Build 0)  -->
<svg version="1.1" id="Capa_1" xmlns="http://www.w3.org/2000/svg" xmlns:xlink="http://www.w3.org/1999/xlink" x="0px" y="0px"
	 viewBox="0 0 456 456" style="enable-background:new 0 0 456 456;" xml:space="preserve">
<g>
	<path style="fill:#FAEEE2;" d="M232,60c-92.784,0-168,75.216-168,168c0,92.784,75.216,168,168,168s168-75.216,168-168
		C400,135.216,324.784,60,232,60z M232,340c-61.759,0-112-50.241-112-112s50.241-112,112-112s112,50.241,112,112
		S293.759,340,232,340z"/>
	<path style="fill:#FFEBE1;" d="M232,132c-52.935,0-96,43.065-96,96s43.065,96,96,96s96-43.065,96-96S284.935,132,232,132z"/>
	<path style="fill:#FFDCAA;" d="M232,116c-61.759,0-112,50.241-112,112s50.241,112,112,112s112-50.241,112-112S293.759,116,232,116z
		 M232,324c-52.935,0-96-43.065-96-96s43.065-96,96-96s96,43.065,96,96S284.935,324,232,324z"/>
	<path style="fill:#F5E1D2;" d="M43.2,84c-2.651,0-4.8,2.217-4.8,4.952v69.333c0,2.735-2.149,4.952-4.8,4.952
		c-2.651,0-4.8-2.217-4.8-4.952V88.952C28.8,86.217,26.651,84,24,84s-4.8,2.217-4.8,4.952v69.333c0,2.735-2.149,4.952-4.8,4.952
		c-2.651,0-4.8-2.217-4.8-4.952V88.952C9.6,86.217,7.451,84,4.8,84C2.149,84,0,86.217,0,88.952v79.238
		c0,9.293,6.227,17.034,14.594,19.171L8.571,356.01C8.259,364.747,15.257,372,24,372s15.741-7.253,15.429-15.99l-6.023-168.648
		C41.773,185.225,48,177.484,48,168.19V88.952C48,86.217,45.851,84,43.2,84z"/>
	<path style="fill:#F5E1D2;" d="M447.372,84c-4.245,0-7.86,3.089-8.522,7.282l-20.736,131.33
		c-1.22,7.726,3.325,15.201,10.745,17.674L440,244l-13.892,111.135C424.989,364.09,431.971,372,440.996,372l0,0
		c8.286,0,15.004-6.718,15.004-15.004V92.628C456,87.863,452.137,84,447.372,84z"/>
</g>
<g>
</g>
<g>
</g>
<g>
</g>
<g>
</g>
<g>
</g>
<g>
</g>
<g>
</g>
<g>
</g>
<g>
</g>
<g>
</g>
<g>
</g>
<g>
</g>
<g>
</g>
<g>
</g>
<g>
</g>
</svg>
