<?xml version="1.0" encoding="iso-8859-1"?>
<!-- Generator: Adobe Illustrator 19.0.0, SVG Export Plug-In . SVG Version: 6.00 Build 0)  -->
<svg version="1.1" id="Layer_1" xmlns="http://www.w3.org/2000/svg" xmlns:xlink="http://www.w3.org/1999/xlink" x="0px" y="0px"
	 viewBox="0 0 512 512" style="enable-background:new 0 0 512 512;" xml:space="preserve">
<g transform="translate(-1)">
	<path style="fill:#DAE7EF;" d="M243.983,147.526c-71.888,0-130.169-11.655-130.169-26.034l52.068,373.153
		c0,9.589,34.964,17.356,78.102,17.356s78.102-7.767,78.102-17.356l52.068-373.153C374.152,135.871,315.871,147.526,243.983,147.526
		"/>
	<path style="fill:#F2E69C;" d="M134.398,269.017l31.484,225.627c0,9.589,34.964,17.356,78.102,17.356s78.102-7.767,78.102-17.356
		l31.484-225.627H134.398z"/>
	<path style="fill:#AEBBC1;" d="M243.983,95.458c-35.493,0-67.627,2.846-91.11,7.454c2.699,5.649,4.33,11.906,4.33,18.58
		c0,6.673-1.631,12.93-4.33,18.58c23.483,4.608,55.617,7.454,91.11,7.454c71.888,0,130.169-11.655,130.169-26.034
		S315.871,95.458,243.983,95.458"/>
	<g>
		<path style="fill:#FFFFFF;" d="M278.695,423.835v37.48c0,8.791-7.185,15.976-15.967,15.976h-37.489
			c-8.782,0-15.967-7.185-15.967-15.976v-37.48c0-8.782,7.185-15.967,15.967-15.967h37.489
			C271.509,407.868,278.695,415.053,278.695,423.835"/>
		<path style="fill:#FFFFFF;" d="M230.176,327.612l26.502,26.503c6.213,6.213,6.213,16.375,0,22.589l-26.502,26.503
			c-6.213,6.213-16.375,6.213-22.589,0l-26.503-26.503c-6.213-6.213-6.213-16.375,0-22.589l26.503-26.503
			C213.801,321.399,223.963,321.399,230.176,327.612"/>
	</g>
	<path style="fill:#659C35;" d="M113.813,121.492c0,7.281,14.978,13.859,39.06,18.58c2.699-5.649,4.33-11.906,4.33-18.58
		c0-23.96-19.43-43.39-43.39-43.39s-43.39,19.43-43.39,43.39s19.43,43.39,43.39,43.39c2.048,0,4.001-0.33,5.97-0.599
		L113.813,121.492z"/>
	<path style="fill:#F9EB80;" d="M353.567,269.017c0,14.379-47.278,26.034-109.585,26.034s-109.585-11.654-109.585-26.034
		c0-14.379,47.278-26.034,109.585-26.034S353.567,254.638,353.567,269.017"/>
	<path style="fill:#FBD490;" d="M299.899,491.204c-0.295,0-0.59-0.017-0.885-0.043c-4.773-0.495-8.244-4.747-7.758-9.52
		L339.487,7.798c0.295-2.951,2.091-5.554,4.747-6.882c2.655-1.319,5.797-1.215,8.348,0.321l86.78,52.068
		c4.113,2.465,5.441,7.793,2.977,11.906c-2.473,4.113-7.81,5.441-11.906,2.977L355.368,23.14l-46.844,460.271
		C308.064,487.871,304.298,491.204,299.899,491.204"/>
</g>
<g>
</g>
<g>
</g>
<g>
</g>
<g>
</g>
<g>
</g>
<g>
</g>
<g>
</g>
<g>
</g>
<g>
</g>
<g>
</g>
<g>
</g>
<g>
</g>
<g>
</g>
<g>
</g>
<g>
</g>
</svg>
