<?xml version="1.0" encoding="iso-8859-1"?>
<!-- Generator: Adobe Illustrator 19.0.0, SVG Export Plug-In . SVG Version: 6.00 Build 0)  -->
<svg version="1.1" id="Layer_1" xmlns="http://www.w3.org/2000/svg" xmlns:xlink="http://www.w3.org/1999/xlink" x="0px" y="0px"
	 viewBox="0 0 512 512" style="enable-background:new 0 0 512 512;" xml:space="preserve">
<g transform="translate(-1 -1)">
	<path style="fill:#D13834;" d="M198.358,360.995c3.602-9.613,5.676-19.959,5.676-30.826c0-48.755-39.521-90.801-88.276-90.801
		c-46.892,0-85.124,39.106-87.993,85.274C70.8,343.745,130.439,356.387,198.358,360.995"/>
	<path style="fill:#88C057;" d="M274.655,230.542c-37.244,0-69.041,23.102-81.999,55.729c7.212,13.153,11.379,28.16,11.379,43.891
		c0,10.858-2.074,21.195-5.667,30.799c18.979,1.289,38.55,1.995,58.633,1.995c33.942,0,66.525-1.916,96.945-5.535
		c5.703-11.67,8.986-24.735,8.986-38.603C362.931,270.063,323.41,230.542,274.655,230.542"/>
	<path style="fill:#ED8F1F;" d="M192.652,286.271c11.494-28.919,37.782-50.317,69.544-54.81
		c7.857-13.206,12.456-28.575,12.456-45.056c0-48.755-39.521-88.276-88.276-88.276c-48.746,0-88.276,39.521-88.276,88.276
		c0,19.906,6.674,38.206,17.788,52.974l0,0C149.371,239.432,177.751,258.014,192.652,286.271
		C192.423,285.838,192.891,286.703,192.652,286.271"/>
	<g>
		<path style="fill:#FFFFFF;" d="M239.345,301.163c0,4.873-3.955,8.828-8.828,8.828s-8.828-3.955-8.828-8.828
			c0-4.873,3.955-8.828,8.828-8.828S239.345,296.29,239.345,301.163"/>
		<path style="fill:#FFFFFF;" d="M265.828,283.508c0,4.873-3.955,8.828-8.828,8.828s-8.828-3.955-8.828-8.828
			s3.955-8.828,8.828-8.828S265.828,278.635,265.828,283.508"/>
		<path style="fill:#FFFFFF;" d="M248.172,336.473c0,4.873-3.955,8.828-8.828,8.828c-4.873,0-8.828-3.955-8.828-8.828
			s3.955-8.828,8.828-8.828C244.218,327.646,248.172,331.6,248.172,336.473"/>
		<path style="fill:#FFFFFF;" d="M177.552,354.128c0,4.873-3.955,8.828-8.828,8.828s-8.828-3.955-8.828-8.828
			c0-4.873,3.955-8.828,8.828-8.828S177.552,349.256,177.552,354.128"/>
		<path style="fill:#FFFFFF;" d="M159.897,327.646c0,4.873-3.955,8.828-8.828,8.828c-4.873,0-8.828-3.955-8.828-8.828
			c0-4.873,3.955-8.828,8.828-8.828C155.942,318.818,159.897,322.773,159.897,327.646"/>
		<path style="fill:#FFFFFF;" d="M177.552,301.163c0,4.873-3.955,8.828-8.828,8.828s-8.828-3.955-8.828-8.828
			c0-4.873,3.955-8.828,8.828-8.828S177.552,296.29,177.552,301.163"/>
		<path style="fill:#FFFFFF;" d="M133.414,301.163c0,4.873-3.955,8.828-8.828,8.828s-8.828-3.955-8.828-8.828
			c0-4.873,3.955-8.828,8.828-8.828S133.414,296.29,133.414,301.163"/>
		<path style="fill:#FFFFFF;" d="M265.828,309.991c0,4.873-3.955,8.828-8.828,8.828s-8.828-3.955-8.828-8.828
			s3.955-8.828,8.828-8.828S265.828,305.118,265.828,309.991"/>
	</g>
	<path style="fill:#7F532F;" d="M257,362.956c-104.316,0-196.175-17.841-249.962-48.719C3.127,322.208,1,330.488,1,338.989
		c0,63.382,114.617,112.243,256,112.243s256-48.861,256-112.243c0-8.501-2.127-16.781-6.038-24.753
		C453.175,345.115,361.316,362.956,257,362.956"/>
	<g>
		<path style="fill:#FFFFFF;" d="M142.241,177.577c0,4.873-3.955,8.828-8.828,8.828c-4.873,0-8.828-3.955-8.828-8.828
			c0-4.873,3.955-8.828,8.828-8.828C138.287,168.749,142.241,172.704,142.241,177.577"/>
		<path style="fill:#FFFFFF;" d="M168.724,151.094c0,4.873-3.955,8.828-8.828,8.828c-4.873,0-8.828-3.955-8.828-8.828
			c0-4.873,3.955-8.828,8.828-8.828C164.769,142.266,168.724,146.221,168.724,151.094"/>
		<path style="fill:#FFFFFF;" d="M159.897,212.887c0,4.873-3.955,8.828-8.828,8.828c-4.873,0-8.828-3.955-8.828-8.828
			c0-4.873,3.955-8.828,8.828-8.828C155.942,204.059,159.897,208.014,159.897,212.887"/>
		<path style="fill:#FFFFFF;" d="M177.552,186.404c0,4.873-3.955,8.828-8.828,8.828s-8.828-3.955-8.828-8.828
			c0-4.873,3.955-8.828,8.828-8.828S177.552,181.531,177.552,186.404"/>
	</g>
	<path style="fill:#A46F3E;" d="M257,451.232c-72.969,0-138.743-13.038-185.379-34.339v78.477h370.759v-78.477
		C395.743,438.194,329.969,451.232,257,451.232"/>
	<path style="fill:#F9D70B;" d="M463.206,125.436c-4.326-17.708-13.895-34.225-30.588-41.551
		c-7.345-3.231-15.951-4.988-25.547-3.407c0,0-16.004-20.418-17.655-61.793c0,0-35.037-2.489-44.138,26.483
		c0,0,36.043,23.172,35.31,52.966c0,0-0.653,28.222,8.828,44.138c8.21,13.789,25.6,69.932-33.554,141.921
		c4.546,10.628,7.071,22.334,7.071,34.631c0,13.833-3.275,26.871-8.951,38.532c25.291-3.01,49.108-7.159,70.85-12.456
		C465.854,300.354,489.168,231.614,463.206,125.436"/>
</g>
<g>
</g>
<g>
</g>
<g>
</g>
<g>
</g>
<g>
</g>
<g>
</g>
<g>
</g>
<g>
</g>
<g>
</g>
<g>
</g>
<g>
</g>
<g>
</g>
<g>
</g>
<g>
</g>
<g>
</g>
</svg>
