<?xml version="1.0" encoding="iso-8859-1"?>
<!-- Generator: Adobe Illustrator 19.0.0, SVG Export Plug-In . SVG Version: 6.00 Build 0)  -->
<svg version="1.1" id="Layer_1" xmlns="http://www.w3.org/2000/svg" xmlns:xlink="http://www.w3.org/1999/xlink" x="0px" y="0px"
	 viewBox="0 0 512 512" style="enable-background:new 0 0 512 512;" xml:space="preserve">
<path style="fill:#B1D7C5;" d="M393.141,0L361.54,417.406v61.203H101.166v-61.203l0,0L69.565,0h137.141H256H393.141z"/>
<path style="fill:#F4BB19;" d="M316.407,144.965h65.76l-20.626,272.441H101.167L79.025,124.912l55.348-16.653
	c7.582-2.282,15.458-3.44,23.376-3.44l0,0c7.828,0,15.615,1.133,23.118,3.364l112.42,33.419
	C300.792,143.832,308.579,144.965,316.407,144.965z"/>
<path style="fill:#FF7B00;" d="M317.005,263.092c69.27,0,125.43,55.718,125.43,124.452c0,68.737-56.159,124.456-125.43,124.456
	c-69.274,0-125.43-55.719-125.43-124.456C191.575,318.81,247.731,263.092,317.005,263.092L317.005,263.092z"/>
<path style="fill:#FF9F00;" d="M317.005,285.181c56.977,0,103.169,45.83,103.169,102.364c0,56.537-46.192,102.368-103.169,102.368
	c-56.98,0-103.169-45.831-103.169-102.368C213.836,331.009,260.026,285.181,317.005,285.181L317.005,285.181z"/>
<path style="fill:#981700;" d="M327.22,387.544c0,4.917-3.987,8.904-8.904,8.904h-2.622c-4.917,0-8.904-3.987-8.904-8.904
	c0-4.917,3.987-8.904,8.904-8.904h2.622C323.234,378.64,327.22,382.626,327.22,387.544z M317.005,331.109
	c4.917,0,8.904-3.987,8.904-8.904v-3.086c0-4.917-3.987-8.904-8.904-8.904c-4.917,0-8.904,3.987-8.904,8.904v3.086
	C308.1,327.122,312.087,331.109,317.005,331.109z M317.005,443.983c-4.917,0-8.904,3.987-8.904,8.904v3.086
	c0,4.917,3.987,8.904,8.904,8.904c4.917,0,8.904-3.987,8.904-8.904v-3.086C325.909,447.97,321.923,443.983,317.005,443.983z
	 M251.152,378.64h-3.111c-4.917,0-8.904,3.987-8.904,8.904c0,4.917,3.987,8.904,8.904,8.904h3.111c4.917,0,8.904-3.987,8.904-8.904
	C260.056,382.626,256.069,378.64,251.152,378.64z M385.97,378.64h-3.111c-4.917,0-8.904,3.987-8.904,8.904
	c0,4.917,3.987,8.904,8.904,8.904h3.111c4.917,0,8.904-3.987,8.904-8.904C394.874,382.626,390.887,378.64,385.97,378.64z
	 M274.504,332.832c-3.495-3.46-9.134-3.432-12.592,0.062c-3.46,3.495-3.433,9.133,0.062,12.592l2.205,2.183
	c1.736,1.719,4.001,2.577,6.265,2.577c2.294,0,4.587-0.88,6.328-2.639c3.459-3.495,3.432-9.133-0.062-12.592L274.504,332.832z
	 M369.847,427.432c-3.489-3.465-9.128-3.445-12.592,0.043c-3.466,3.489-3.446,9.127,0.043,12.593l2.198,2.183
	c1.737,1.725,4.006,2.586,6.274,2.586c2.29,0,4.578-0.877,6.318-2.63c3.465-3.489,3.446-9.127-0.043-12.593L369.847,427.432z
	 M264.179,427.421l-2.205,2.183c-3.495,3.46-3.523,9.098-0.062,12.592c1.741,1.759,4.034,2.639,6.328,2.639
	c2.264,0,4.529-0.858,6.264-2.577l2.205-2.183c3.495-3.46,3.523-9.098,0.062-12.592C273.31,423.987,267.672,423.96,264.179,427.421z
	 M363.572,350.246c2.268,0,4.538-0.861,6.274-2.586l2.198-2.183c3.489-3.465,3.508-9.104,0.043-12.593
	c-3.465-3.489-9.105-3.508-12.592-0.043l-2.198,2.183c-3.489,3.465-3.509,9.104-0.043,12.593
	C358.994,349.369,361.283,350.246,363.572,350.246z"/>
<g>
</g>
<g>
</g>
<g>
</g>
<g>
</g>
<g>
</g>
<g>
</g>
<g>
</g>
<g>
</g>
<g>
</g>
<g>
</g>
<g>
</g>
<g>
</g>
<g>
</g>
<g>
</g>
<g>
</g>
</svg>
