<?xml version="1.0" encoding="iso-8859-1"?>
<!-- Generator: Adobe Illustrator 19.0.0, SVG Export Plug-In . SVG Version: 6.00 Build 0)  -->
<svg xmlns="http://www.w3.org/2000/svg" xmlns:xlink="http://www.w3.org/1999/xlink" version="1.1" id="Capa_1" x="0px" y="0px" viewBox="0 0 462.5 462.5" style="enable-background:new 0 0 462.5 462.5;" xml:space="preserve" width="512" height="512">
<g>
	<path style="fill:#68E1F2;" d="M180.21,74.2c25.97-14.55,43.54-42.32,43.54-74.2h-170c0,31.88,17.56,59.65,43.54,74.2   c0,0-93.54,132.37-93.54,245.8c0,74.56,60.44,135,135,135s135-60.44,135-135C273.75,206.57,180.21,74.2,180.21,74.2z"/>
	<path style="fill:#B2AFAF;" d="M407.25,297.5c-4.143,0-7.5-3.357-7.5-7.5c0-9.375,2.707-14.45,4.883-18.528   c1.81-3.394,3.117-5.845,3.117-11.469c0-5.626-1.308-8.078-3.118-11.472c-2.175-4.079-4.882-9.155-4.882-18.53   s2.707-14.451,4.882-18.529c1.811-3.394,3.118-5.846,3.118-11.472c0-4.143,3.357-7.5,7.5-7.5s7.5,3.357,7.5,7.5   c0,9.376-2.707,14.451-4.883,18.53c-1.81,3.394-3.117,5.846-3.117,11.471c0,5.626,1.308,8.078,3.118,11.472   c2.175,4.079,4.882,9.155,4.882,18.53c0,9.374-2.707,14.449-4.883,18.527c-1.81,3.394-3.117,5.846-3.117,11.47   C414.75,294.143,411.393,297.5,407.25,297.5z"/>
	<path style="fill:#B2AFAF;" d="M367.25,297.5c-4.143,0-7.5-3.357-7.5-7.5c0-9.375,2.707-14.45,4.883-18.528   c1.81-3.394,3.117-5.845,3.117-11.469c0-5.626-1.308-8.078-3.118-11.472c-2.175-4.079-4.882-9.155-4.882-18.53   s2.707-14.451,4.882-18.529c1.811-3.394,3.118-5.846,3.118-11.472c0-4.143,3.357-7.5,7.5-7.5s7.5,3.357,7.5,7.5   c0,9.376-2.707,14.451-4.883,18.53c-1.81,3.394-3.117,5.846-3.117,11.471c0,5.626,1.308,8.078,3.118,11.472   c2.175,4.079,4.882,9.155,4.882,18.53c0,9.374-2.707,14.449-4.883,18.527c-1.81,3.394-3.117,5.846-3.117,11.47   C374.75,294.143,371.393,297.5,367.25,297.5z"/>
	<path style="fill:#C1765B;" d="M323.75,320l11.687,105.184C337.259,441.583,352.25,455,368.75,455h45   c16.5,0,31.491-13.417,33.313-29.816L458.75,320H323.75z"/>
	<path style="fill:#68E1F2;" d="M203.75,462.5h-130c-4.143,0-7.5-3.357-7.5-7.5s3.357-7.5,7.5-7.5h130c4.143,0,7.5,3.357,7.5,7.5   S207.893,462.5,203.75,462.5z"/>
	<circle style="fill:#0B7786;" cx="91.757" cy="397.073" r="7.5"/>
	<circle style="fill:#0B7786;" cx="61.756" cy="367.073" r="7.5"/>
</g>















</svg>
