<?xml version="1.0" encoding="iso-8859-1"?>
<!-- Generator: Adobe Illustrator 19.0.0, SVG Export Plug-In . SVG Version: 6.00 Build 0)  -->
<svg version="1.1" id="Layer_1" xmlns="http://www.w3.org/2000/svg" xmlns:xlink="http://www.w3.org/1999/xlink" x="0px" y="0px"
	 viewBox="0 0 512 512" style="enable-background:new 0 0 512 512;" xml:space="preserve">
<path style="fill:#FF5E5B;" d="M322.401,512H189.629c-46.186,0-83.76-37.574-83.76-83.758V291.285
	c0-21.208,7.948-41.449,22.379-56.993c2.208-2.378-1.097,0.068,56.397-37.876V74.464c0-10.63,8.618-19.248,19.248-19.248h104.242
	c10.63,0,19.248,8.618,19.248,19.248v121.952c57.583,38.001,54.204,35.511,56.397,37.876c14.432,15.542,22.379,35.783,22.379,56.993
	V428.24C406.16,474.426,368.586,512,322.401,512z"/>
<path style="fill:#ED3E3C;" d="M383.781,234.292c-2.199-2.371,1.11,0.076-56.397-37.876V74.464c0-10.63-8.618-19.248-19.248-19.248
	h-52.12V512h66.385c46.184,0,83.758-37.574,83.758-83.758V291.285C406.16,270.075,398.213,249.834,383.781,234.292z"/>
<g>
	<path style="fill:#FFDA79;" d="M319.065,93.712h-126.1c-25.837,0-46.857-21.02-46.857-46.857C146.109,21.02,167.129,0,192.965,0
		h126.101c25.837,0,46.857,21.02,46.857,46.857C365.922,72.692,344.902,93.712,319.065,93.712z"/>
	<path style="fill:#FFDA79;" d="M106.467,281.444c-0.828,7.047-0.598-2.556-0.598,146.796c0,2.09,0.103,4.156,0.254,6.209h299.781
		c0.151-2.053,0.254-4.119,0.254-6.209V291.285c0-3.311-0.216-6.592-0.598-9.841H106.467z"/>
</g>
<g>
	<path style="fill:#FFC72D;" d="M319.065,0h-63.05v93.712h63.05c25.837,0,46.857-21.02,46.857-46.857
		C365.922,21.02,344.902,0,319.065,0z"/>
	<path style="fill:#FFC72D;" d="M405.563,281.444H256.016V434.45h149.89c0.151-2.053,0.254-4.119,0.254-6.209V291.285
		C406.16,287.974,405.944,284.693,405.563,281.444z"/>
</g>
<g>
</g>
<g>
</g>
<g>
</g>
<g>
</g>
<g>
</g>
<g>
</g>
<g>
</g>
<g>
</g>
<g>
</g>
<g>
</g>
<g>
</g>
<g>
</g>
<g>
</g>
<g>
</g>
<g>
</g>
</svg>
